<?xml version="1.0" encoding="utf-8"?>
<!-- Generator: Adobe Illustrator 22.0.0, SVG Export Plug-In . SVG Version: 6.00 Build 0)  -->
<svg version="1.1" xmlns="http://www.w3.org/2000/svg" xmlns:xlink="http://www.w3.org/1999/xlink" x="0px" y="0px"
	 viewBox="0 0 500 500" style="enable-background:new 0 0 500 500;" xml:space="preserve">
<style type="text/css">
	.st0{fill:#FFFFFF;stroke:#000000;stroke-miterlimit:10;transfor-origin:50% 50%;}
	.st1{fill:#6D6964;}
	.st2{fill:#6D6A67;}
	.st3{opacity:0.8;}
	.st4{fill:#77736D;}
	.st5{opacity:0.7;}
	.st6{fill:#948E88;}
	.st7{opacity:0.6;}
	.st8{fill:#C0B7AE;}
	.st9{opacity:0.5;}
	.st10{fill:#E6D9CA;}
	.st11{display:none;}
	.st12{display:inline;}
	.st13{fill:#FDF1F6;stroke:#000000;stroke-miterlimit:10;}
	
	.st1:hover, .st1:active, .st1:focus
	{
		border-color: blue;
		border-width: 5px;
		
	}
	
</style>
<g id="Layer_1">
	<path class="st0" d="M250,150"/>
	<g id="BirdBadge_1_">
		<path class="st1" d="M445.8,401.2c15.3,33.9-86,33.2-86,33.2L337,383.9c0,0,43.4-16.8,36-33.2l-30.5-67.3h-50l-4.9,16.8l-2.5,8.5
			l-2.5,8.5l-9.7,33.6l-40.7-34.1l8-8.4l-27.9-8.2l-19.9-16.6h-50c0,0,24.5,54.1,30.5,67.3c6,13.2,65.2,33.5,65.2,33.5l22.7,50.1
			c0,0-100,0-115-33.2c-5.2-11.5-16.8-37.1-29.8-65.8l10.3-4.9l-14.7-4.9c-4.6-10.2-9.3-20.5-13.9-30.7l10.3-4.9l-14.7-4.9
			c-5-10.9-9.7-21.4-13.9-30.7l10.3-4.9l-14.7-4.9c-7.8-17.3-13-28.8-13-28.8h50h40.2H212h0.2h60H312h50c0,0,5.2,11.5,13,28.8
			l-10.3,4.9l14.7,4.9c4.2,9.3,8.9,19.7,13.9,30.7l-10.3,4.9l14.7,4.9c4.6,10.1,9.3,20.5,13.9,30.7l-10.3,4.9l14.7,4.9
			C428.9,363.9,440.5,389.5,445.8,401.2z"/>
		<polygon class="st2" points="86.1,165.6 146.1,165.6 166.4,181.1 152.2,216.1 		"/>
		<polygon class="st2" points="166.4,181.1 172.7,165.6 206.1,165.6 226.4,181.1 212.2,216.1 		"/>
		<polygon class="st2" points="232.7,165.6 292.7,165.6 272.2,216.1 226.4,181.1 		"/>
	</g>
	<g id="BirdBadge_2_" class="st3">
		<path class="st4" d="M445.8,376.2c15.3,33.9-86,33.2-86,33.2L337,358.9c0,0,43.4-16.8,36-33.2l-30.5-67.3h-50l-4.9,16.8l-2.5,8.5
			l-2.5,8.5l-9.7,33.6l-40.7-34.1l8-8.4l-27.9-8.2l-19.9-16.6h-50c0,0,24.5,54.1,30.5,67.3c6,13.2,65.2,33.5,65.2,33.5l22.7,50.1
			c0,0-100,0-115-33.2c-5.2-11.5-16.8-37.1-29.8-65.8l10.3-4.9l-14.7-4.9c-4.6-10.2-9.3-20.5-13.9-30.7l10.3-4.9l-14.7-4.9
			c-5-10.9-9.7-21.4-13.9-30.7l10.3-4.9l-14.7-4.9c-7.8-17.3-13-28.8-13-28.8h50h40.2H212h0.2h60H312h50c0,0,5.2,11.5,13,28.8
			l-10.3,4.9l14.7,4.9c4.2,9.3,8.9,19.7,13.9,30.7l-10.3,4.9l14.7,4.9c4.6,10.1,9.3,20.5,13.9,30.7l-10.3,4.9l14.7,4.9
			C428.9,338.9,440.5,364.5,445.8,376.2z"/>
		<polygon class="st4" points="86.1,140.6 146.1,140.6 166.4,156.1 152.2,191.1 		"/>
		<polygon class="st4" points="166.4,156.1 172.7,140.6 206.1,140.6 226.4,156.1 212.2,191.1 		"/>
		<polygon class="st4" points="232.7,140.6 292.7,140.6 272.2,191.1 226.4,156.1 		"/>
	</g>
	<g id="BirdBadge_3_" class="st5">
		<path class="st6" d="M441.1,351.2c15.3,33.9-86,33.2-86,33.2l-22.8-50.4c0,0,43.4-16.8,36-33.2l-30.5-67.3h-50l-4.9,16.8l-2.5,8.5
			l-2.5,8.5l-9.7,33.6l-40.7-34.1l8-8.4l-27.9-8.2l-19.9-16.6h-50c0,0,24.5,54.1,30.5,67.3c6,13.2,65.2,33.5,65.2,33.5l22.7,50.1
			c0,0-100,0-115-33.2c-5.2-11.5-16.8-37.1-29.8-65.8l10.3-4.9l-14.7-4.9c-4.6-10.2-9.3-20.5-13.9-30.7l10.3-4.9l-14.7-4.9
			c-5-10.9-9.7-21.4-13.9-30.7l10.3-4.9l-14.7-4.9c-7.8-17.3-13-28.8-13-28.8h50h40.2h59.8h0.2h60h39.8h50c0,0,5.2,11.5,13,28.8
			l-10.3,4.9l14.7,4.9c4.2,9.3,8.9,19.7,13.9,30.7l-10.3,4.9L393,245c4.6,10.1,9.3,20.5,13.9,30.7l-10.3,4.9l14.7,4.9
			C424.2,313.9,435.8,339.5,441.1,351.2z"/>
		<polygon class="st6" points="81.3,115.6 141.3,115.6 161.7,131.1 147.5,166.1 		"/>
		<polygon class="st6" points="161.7,131.1 168,115.6 201.3,115.6 221.7,131.1 207.5,166.1 		"/>
		<polygon class="st6" points="228,115.6 288,115.6 267.5,166.1 221.7,131.1 		"/>
	</g>
	<g id="BirdBadge_4_" class="st7">
		<path class="st8" d="M441.1,301.2c15.3,33.9-86,33.2-86,33.2l-22.8-50.4c0,0,43.4-16.8,36-33.2l-30.5-67.3h-50l-4.9,16.8l-2.5,8.5
			l-2.5,8.5l-9.7,33.6l-40.7-34.1l8-8.4l-27.9-8.2l-19.9-16.6h-50c0,0,24.5,54.1,30.5,67.3c6,13.2,65.2,33.5,65.2,33.5l22.7,50.1
			c0,0-100,0-115-33.2c-5.2-11.5-16.8-37.1-29.8-65.8l10.3-4.9l-14.7-4.9c-4.6-10.2-9.3-20.5-13.9-30.7l10.3-4.9l-14.7-4.9
			c-5-10.9-9.7-21.4-13.9-30.7l10.3-4.9l-14.7-4.9c-7.8-17.3-13-28.8-13-28.8h50h40.2h59.8h0.2h60h39.8h50c0,0,5.2,11.5,13,28.8
			l-10.3,4.9l14.7,4.9c4.2,9.3,8.9,19.7,13.9,30.7l-10.3,4.9L393,195c4.6,10.1,9.3,20.5,13.9,30.7l-10.3,4.9l14.7,4.9
			C424.2,263.9,435.8,289.5,441.1,301.2z"/>
		<polygon class="st8" points="81.3,65.6 141.3,65.6 161.7,81.1 147.5,116.1 		"/>
		<polygon class="st8" points="161.7,81.1 168,65.6 201.3,65.6 221.7,81.1 207.5,116.1 		"/>
		<polygon class="st8" points="228,65.6 288,65.6 267.5,116.1 221.7,81.1 		"/>
	</g>
	<g id="BirdBadge_5_" class="st9">
		<path class="st10" d="M441.1,276.2c15.3,33.9-86,33.2-86,33.2l-22.8-50.4c0,0,43.4-16.8,36-33.2l-30.5-67.3h-50l-4.9,16.8
			l-2.5,8.5l-2.5,8.5l-9.7,33.6l-40.7-34.1l8-8.4l-27.9-8.2l-19.9-16.6h-50c0,0,24.5,54.1,30.5,67.3c6,13.2,65.2,33.5,65.2,33.5
			l22.7,50.1c0,0-100,0-115-33.2c-5.2-11.5-16.8-37.1-29.8-65.8l10.3-4.9l-14.7-4.9c-4.6-10.2-9.3-20.5-13.9-30.7l10.3-4.9
			l-14.7-4.9c-5-10.9-9.7-21.4-13.9-30.7l10.3-4.9l-14.7-4.9c-7.8-17.3-13-28.8-13-28.8h50h40.2h59.8h0.2h60h39.8h50
			c0,0,5.2,11.5,13,28.8l-10.3,4.9l14.7,4.9c4.2,9.3,8.9,19.7,13.9,30.7l-10.3,4.9L393,170c4.6,10.1,9.3,20.5,13.9,30.7l-10.3,4.9
			l14.7,4.9C424.2,238.9,435.8,264.5,441.1,276.2z"/>
		<polygon class="st10" points="81.3,40.6 141.3,40.6 161.7,56.1 147.5,91.1 		"/>
		<polygon class="st10" points="161.7,56.1 168,40.6 201.3,40.6 221.7,56.1 207.5,91.1 		"/>
		<polygon class="st10" points="228,40.6 288,40.6 267.5,91.1 221.7,56.1 		"/>

	</g>
</g>
<g id="Birdsign" class="st11">
	<g id="BirdBadge" class="st12">
		<path class="st13" d="M400,75c0-50.3-101-49.3-101-49.3v74.9c0,0,51,25,51,49.3v100h-50l-12.5-24.9l-6.3-12.6l-6.3-12.6L250,150
			l-25.3,50.6l11.8,12.5l-24.2,12.2L200,250h-50c0,0,0-80.3,0-100c0-19.7,50-49.8,50-49.8V25.8c0,0-100,0-100,49.3
			c0,17,0,55.2,0,97.8l12.5,7.2l-12.5,7.2c0,15.1,0,30.5,0,45.6l12.5,7.2l-12.5,7.2c0,16.3,0,31.8,0,45.6l12.5,7.2l-12.5,7.2
			c0,25.7,0,42.8,0,42.8h50h40.2H250h0.2h60H350h50c0,0,0-17,0-42.8l-12.5-7.2l12.5-7.2c0-13.8,0-29.3,0-45.6l-12.5-7.2l12.5-7.2
			c0-15,0-30.5,0-45.6l-12.5-7.2l12.5-7.2C400,130.4,400,92.3,400,75z"/>
		<polygon class="st13" points="146.9,425 206.9,425 220.2,402 190.2,350 		"/>
		<polygon class="st13" points="220.2,402 233.5,425 266.9,425 280.2,402 250.2,350 		"/>
		<polygon class="st13" points="293.5,425 353.5,425 310.2,350 280.2,402 		"/>
	</g>
</g>
</svg>
