<?xml version="1.0" encoding="utf-8"?>
<!-- Generator: Adobe Illustrator 22.0.0, SVG Export Plug-In . SVG Version: 6.00 Build 0)  -->
<svg version="1.1" id="Layer_1" xmlns="http://www.w3.org/2000/svg" xmlns:xlink="http://www.w3.org/1999/xlink" x="0px" y="0px"
	 viewBox="0 0 500 500" style="enable-background:new 0 0 500 500;" xml:space="preserve">
<style type="text/css">
	.st0{fill:#47453F;}
</style>
<g>
	<path id="notcompoundpath2" class="st0" d="M250.2,139.8L48.1,248.7l202.2,108.9 M250.2,139.8 M452.4,248.7 M250.2,339.5
		 M250.2,157.8 M250.2,339.5L81.6,248.7l168.6-90.8"/>
	<path id="notcompoundpath" class="st0" d="M250.2,357.6l202.2-108.9L250.2,139.8 M48.1,248.7 M250.2,157.8 M250.2,339.5
		 M250.2,157.8l168.6,90.8l-168.6,90.8"/>
	<path class="st0" d="M63.5,233.1L65,38.2l154.1,110.7l15.6-9.2L48,9.3v233L63.5,233.1z"/>
	<path class="st0" d="M63.5,266.2L65,461.1l154.1-110.7l15.6,9.2L48,490v-233L63.5,266.2z"/>
</g>
</svg>
